<?xml version="1.0" standalone="no"?>
<!DOCTYPE svg PUBLIC "-//W3C//DTD SVG 20010904//EN"
 "http://www.w3.org/TR/2001/REC-SVG-20010904/DTD/svg10.dtd">
<svg version="1.0" xmlns="http://www.w3.org/2000/svg"
 width="1200.000000pt" height="1200.000000pt" viewBox="0 0 1200.000000 1200.000000"
 preserveAspectRatio="xMidYMid meet">
<metadata>
Created by potrace 1.14, written by Peter Selinger 2001-2017
</metadata>
<g transform="translate(0.000000,1200.000000) scale(0.100000,-0.100000)"
fill="#000000" stroke="none">
<path d="M5645 9857 c-92 -31 -159 -89 -196 -171 -18 -40 -19 -114 -19 -2411
l0 -2370 24 -51 c28 -60 80 -115 139 -146 34 -18 63 -23 149 -26 97 -4 111 -2
160 20 75 34 122 79 155 146 l28 57 0 2370 c0 2265 -1 2372 -18 2409 -26 55
-101 131 -155 157 -59 27 -205 36 -267 16z"/>
<path d="M9790 8512 c-77 -32 -2113 -1034 -2152 -1060 -42 -27 -74 -66 -109
-132 -21 -40 -24 -58 -24 -155 0 -97 3 -116 25 -160 56 -113 20 -93 1174 -660
582 -286 1073 -525 1090 -532 53 -20 168 -16 233 9 78 29 152 103 182 183 31
83 26 197 -12 271 -51 101 -65 109 -879 508 -416 204 -759 374 -762 377 -3 3
341 176 766 385 833 409 827 406 879 511 20 40 24 64 24 143 0 79 -4 103 -23
142 -31 63 -90 121 -154 154 -70 36 -190 44 -258 16z"/>
<path d="M1980 6731 c-45 -14 -84 -39 -123 -78 -105 -104 -110 -197 -31 -593
246 -1238 928 -2275 1945 -2958 257 -173 631 -369 936 -491 701 -281 1642
-463 2448 -474 146 -2 152 -1 207 26 61 30 105 74 140 140 20 37 23 57 23 162
0 135 -12 172 -82 241 -71 71 -115 83 -344 94 -1457 71 -2555 451 -3369 1166
-692 607 -1151 1481 -1295 2464 -9 58 -25 124 -36 147 -24 49 -109 130 -148
141 -18 5 1 9 64 13 62 3 29 6 -110 6 -110 1 -211 -2 -225 -6z"/>
</g>
</svg>
